<svg xmlns="http://www.w3.org/2000/svg" data-name="Layer 1" viewBox="0 0 24 30" x="0px" y="0px"><title>rounded</title><path d="M12,6a3.5,3.5,0,1,0,3.5,3.5A3.5,3.5,0,0,0,12,6Zm0,6a2.5,2.5,0,1,1,2.5-2.5A2.50286,2.50286,0,0,1,12,12Zm0-9a9,9,0,1,0,9,9A9,9,0,0,0,12,3ZM7,17.18445V17a2,2,0,0,1,2-2h6a2,2,0,0,1,2,2v.18445a1.97443,1.97443,0,0,1-.94429,1.70485,7.96008,7.96008,0,0,1-8.11144,0A1.97443,1.97443,0,0,1,7,17.18445Zm11,.08935V17a3,3,0,0,0-3-3H9a3,3,0,0,0-3,3v.2738a8,8,0,1,1,12,0Z"/><text x="0" y="39" fill="#000000" font-size="5px" font-weight="bold" font-family="'Helvetica Neue', Helvetica, Arial-Unicode, Arial, Sans-serif">Created by Sophia Bai</text><text x="0" y="44" fill="#000000" font-size="5px" font-weight="bold" font-family="'Helvetica Neue', Helvetica, Arial-Unicode, Arial, Sans-serif">from the Noun Project</text></svg>