<svg xmlns:rdf="http://www.w3.org/1999/02/22-rdf-syntax-ns#" xmlns="http://www.w3.org/2000/svg" xmlns:cc="http://creativecommons.org/ns#" xmlns:dc="http://purl.org/dc/elements/1.1/" xml:space="preserve" viewBox="0 0 100 125" version="1.1" y="0px" x="0px"><path d="m27.148 17.691c-8.108 0-14.705 6.597-14.705 14.705 0 8.109 6.597 14.706 14.705 14.706 8.109 0 14.707-6.597 14.707-14.706 0-8.108-6.598-14.705-14.707-14.705zm45.704 0c-8.109 0-14.707 6.597-14.707 14.705 0 8.109 6.598 14.706 14.707 14.706 8.108 0 14.705-6.597 14.705-14.706 0-8.108-6.597-14.705-14.705-14.705zm-45.704 34.842c-14.97 0-27.148 12.179-27.148 27.149 0 0.509 0.17078 0.979 0.45508 1.357a2.2627 2.2627 0 0 0 2.0625 1.27l49.248-0.008a2.2627 2.2627 0 0 0 2.023 -1.19c0.318-0.389 0.51-0.887 0.51-1.429 0-14.97-12.18-27.149-27.151-27.149zm45.704 0c-7.78 0-15.199 3.346-20.354 9.18-0.827 0.936-0.739 2.366 0.197 3.193 0.937 0.827 2.366 0.739 3.194-0.197 3.793-4.293 9.057-6.969 14.699-7.537l4.525-0.002c10.792 1.076 19.374 9.768 20.282 20.607l-37.749 0.008a2.2627 2.2627 0 1 0 0.002 4.524l39.362-0.006a2.2627 2.2627 0 0 0 1.39 -0.457c0.927-0.284 1.6-1.145 1.6-2.164 0-14.97-12.178-27.149-27.148-27.149z"/><text x="0" y="115" fill="#000000" font-size="5px" font-weight="bold" font-family="'Helvetica Neue', Helvetica, Arial-Unicode, Arial, Sans-serif">Created by yenny</text><text x="0" y="120" fill="#000000" font-size="5px" font-weight="bold" font-family="'Helvetica Neue', Helvetica, Arial-Unicode, Arial, Sans-serif">from the Noun Project</text></svg>