<svg xmlns="http://www.w3.org/2000/svg" xmlns:xlink="http://www.w3.org/1999/xlink" viewBox="0 0 100 125" version="1.1" x="0px" y="0px"><title>Profile 0.5</title><desc>Created with Sketch.</desc><g stroke="none" stroke-width="1" fill="none" fill-rule="evenodd"><g fill-rule="nonzero" fill="#000000"><path d="M64,50 C57.6487254,50 52.5,44.8512746 52.5,38.5 C52.5,32.1487254 57.6487254,27 64,27 C70.3512746,27 75.5,32.1487254 75.5,38.5 C75.5,44.8512746 70.3512746,50 64,50 Z M64,45 C67.5898509,45 70.5,42.0898509 70.5,38.5 C70.5,34.9101491 67.5898509,32 64,32 C60.4101491,32 57.5,34.9101491 57.5,38.5 C57.5,42.0898509 60.4101491,45 64,45 Z M82.5,70.5 C82.5,71.8807119 81.3807119,73 80,73 C78.6192881,73 77.5,71.8807119 77.5,70.5 C77.5,63.0441559 71.4558441,57 64,57 C56.5441559,57 50.5,63.0441559 50.5,70.5 C50.5,71.8807119 49.3807119,73 48,73 C46.6192881,73 45.5,71.8807119 45.5,70.5 C45.5,60.2827321 53.7827321,52 64,52 C74.2172679,52 82.5,60.2827321 82.5,70.5 Z"/><path d="M36,50 C29.6487254,50 24.5,44.8512746 24.5,38.5 C24.5,32.1487254 29.6487254,27 36,27 C42.3512746,27 47.5,32.1487254 47.5,38.5 C47.5,44.8512746 42.3512746,50 36,50 Z M36,45 C39.5898509,45 42.5,42.0898509 42.5,38.5 C42.5,34.9101491 39.5898509,32 36,32 C32.4101491,32 29.5,34.9101491 29.5,38.5 C29.5,42.0898509 32.4101491,45 36,45 Z M54.5,70.5 C54.5,71.8807119 53.3807119,73 52,73 C50.6192881,73 49.5,71.8807119 49.5,70.5 C49.5,63.0441559 43.4558441,57 36,57 C28.5441559,57 22.5,63.0441559 22.5,70.5 C22.5,71.8807119 21.3807119,73 20,73 C18.6192881,73 17.5,71.8807119 17.5,70.5 C17.5,60.2827321 25.7827321,52 36,52 C46.2172679,52 54.5,60.2827321 54.5,70.5 Z"/></g></g><text x="0" y="115" fill="#000000" font-size="5px" font-weight="bold" font-family="'Helvetica Neue', Helvetica, Arial-Unicode, Arial, Sans-serif">Created by Landan Lloyd</text><text x="0" y="120" fill="#000000" font-size="5px" font-weight="bold" font-family="'Helvetica Neue', Helvetica, Arial-Unicode, Arial, Sans-serif">from the Noun Project</text></svg>