<svg xmlns="http://www.w3.org/2000/svg" xmlns:xlink="http://www.w3.org/1999/xlink" viewBox="0 0 30 37.5" version="1.1" x="0px" y="0px"><title>icon/user/sign out</title><g stroke="none" stroke-width="1" fill="none" fill-rule="evenodd"><path d="M16.7966,4 C19.8306,4 22.2996,6.469 22.2996,9.504 C22.2996,11.433 21.3006,13.13 19.7946,14.112 C19.5946,14.243 19.3856,14.359 19.1706,14.46 C19.1486,14.472 19.1246,14.483 19.1016,14.494 C17.6546,15.151 15.9386,15.151 14.4906,14.493 C14.4676,14.483 14.4456,14.472 14.4226,14.461 C14.2086,14.36 14.0006,14.244 13.8006,14.114 C12.2936,13.131 11.2926,11.434 11.2926,9.504 C11.2926,6.469 13.7616,4 16.7966,4 M28.8656,21.162 C28.1086,18.247 25.7886,15.849 22.4376,14.435 C23.5926,13.114 24.2996,11.392 24.2996,9.504 C24.2996,5.366 20.9336,2 16.7966,2 C12.6586,2 9.2926,5.366 9.2926,9.504 C9.2926,11.395 10.0006,13.119 11.1596,14.44 C10.5526,14.698 9.9636,14.979 9.4176,15.306 C8.9436,15.59 8.7896,16.204 9.0726,16.678 C9.3576,17.151 9.9706,17.305 10.4446,17.022 C11.1756,16.585 11.9806,16.216 12.8396,15.923 L12.9136,15.923 C12.9496,15.944 12.9896,15.96 13.0266,15.981 C14.1366,16.629 15.4216,17.007 16.7966,17.007 C18.1716,17.007 19.4576,16.628 20.5676,15.979 C20.6036,15.959 20.6426,15.944 20.6786,15.923 L20.7526,15.923 C23.8176,16.963 25.9846,18.862 26.7876,21.195 C24.2876,24.158 20.6746,25.847 16.7956,25.847 C14.4336,25.847 12.1186,25.208 10.1026,24 C9.6276,23.716 9.0156,23.869 8.7316,24.344 C8.4466,24.817 8.6016,25.432 9.0746,25.715 C11.4016,27.109 14.0716,27.847 16.7956,27.847 C21.4646,27.847 25.7986,25.727 28.6866,22.029 C28.8776,21.784 28.9436,21.464 28.8656,21.162" fill="#000000"/><path d="M12.2126,19.835 L5.1656,19.835 L8.0306,16.481 C8.3896,16.062 8.3396,15.431 7.9196,15.071 C7.5006,14.715 6.8696,14.762 6.5096,15.183 L2.2346,20.186 C2.1936,20.233 2.1726,20.291 2.1426,20.345 C2.1176,20.387 2.0876,20.424 2.0686,20.47 C1.9776,20.705 1.9776,20.965 2.0686,21.2 C2.0876,21.246 2.1176,21.282 2.1426,21.325 C2.1726,21.378 2.1936,21.437 2.2346,21.484 L6.5096,26.488 C6.7076,26.72 6.9876,26.839 7.2706,26.839 C7.5006,26.839 7.7316,26.76 7.9196,26.6 C8.3396,26.24 8.3896,25.609 8.0306,25.189 L5.1656,21.835 L12.2126,21.835 C12.7656,21.835 13.2126,21.388 13.2126,20.835 C13.2126,20.282 12.7656,19.835 12.2126,19.835" fill="#000000"/></g><text x="0" y="45" fill="#000000" font-size="5px" font-weight="bold" font-family="'Helvetica Neue', Helvetica, Arial-Unicode, Arial, Sans-serif">Created by Ahyun Lee</text><text x="0" y="50" fill="#000000" font-size="5px" font-weight="bold" font-family="'Helvetica Neue', Helvetica, Arial-Unicode, Arial, Sans-serif">from the Noun Project</text></svg>