<svg xmlns="http://www.w3.org/2000/svg" xmlns:xlink="http://www.w3.org/1999/xlink" version="1.1" x="0px" y="0px" viewBox="0 0 144.083 180" enable-background="new 0 0 144.083 144" xml:space="preserve"><path d="M110.248,96.178l-2.502,2.5c-0.742,0.744-1.778,1.018-2.735,0.816c-0.587-0.1-1.146-0.369-1.592-0.816l-2.5-2.502  c-1.476-1.475-3.414-2.213-5.354-2.213s-3.88,0.738-5.356,2.215c-2.888,2.891-2.842,7.545,0.109,10.826  c3.144,3.492,11.521,10.525,15.265,13.621c3.744-3.096,12.125-10.131,15.27-13.623c2.949-3.279,2.995-7.934,0.106-10.826  C118.006,93.227,113.2,93.225,110.248,96.178z"/><path d="M79.96,81.717c3.406,1.75,6.984,4.324,10.022,7.461c4.999-2.25,11.082-1.34,15.179,2.756l0.422,0.422l0.422-0.422  c3.671-3.668,8.938-4.787,13.587-3.365c1.434-4.676,2.218-9.637,2.218-14.783c0-27.84-22.57-50.411-50.412-50.411  c-27.84,0-50.411,22.57-50.411,50.411c0,18.293,9.745,34.309,24.325,43.145v-11.721c0-10.32,9.369-19.24,17.563-23.469  c-6.227-3.656-10.502-11.185-10.502-19.886c0-12.285,8.52-22.244,19.025-22.244c10.507,0,19.025,9.959,19.025,22.244  C90.423,70.538,86.166,78.053,79.96,81.717z"/><text x="0" y="159" fill="#000000" font-size="5px" font-weight="bold" font-family="'Helvetica Neue', Helvetica, Arial-Unicode, Arial, Sans-serif">Created by Chanut is Industries</text><text x="0" y="164" fill="#000000" font-size="5px" font-weight="bold" font-family="'Helvetica Neue', Helvetica, Arial-Unicode, Arial, Sans-serif">from the Noun Project</text></svg>