<svg xmlns="http://www.w3.org/2000/svg" xmlns:xlink="http://www.w3.org/1999/xlink" version="1.1" x="0px" y="0px" viewBox="0 0 64 80" style="enable-background:new 0 0 64 64;" xml:space="preserve"><g><path d="M53.6533203,25.6943359c-1.0810547-0.6738281-2.3486328-0.8657227-3.5625-0.5415039   c-1.2695313,0.3393555-2.3242188,1.1918945-2.9716797,2.4008789l-1.3134766,2.4570313   c-1.5478516,2.8955078-4.4199219,4.6943359-7.4941406,4.6943359H25.6884766c-3.0742188,0-5.9462891-1.7988281-7.4941406-4.6943359   l-1.3134766-2.4570313c-0.6474609-1.2089844-1.7021484-2.0615234-2.9716797-2.4008789   c-1.2148438-0.3242188-2.4804688-0.1323242-3.5625,0.5415039c-2.2285156,1.3891602-3.0029297,4.4633789-1.7255859,6.8535156   l5.8466797,10.9345703c1.6162109,3.0224609,2.4707031,6.4667969,2.4707031,9.9609375V60c0,0.5527344,0.4472656,1,1,1h28.1230469   c0.5527344,0,1-0.4472656,1-1v-6.5566406c0-3.4941406,0.8544922-6.9384766,2.4707031-9.9609375l5.8466797-10.9345703   C56.65625,30.1577148,55.8818359,27.0834961,53.6533203,25.6943359z M53.6152344,31.6049805v-0.0004883l-5.8466797,10.9345703   c-1.7705078,3.3115234-2.7070313,7.0820313-2.7070313,10.9042969V59H18.9384766v-5.5566406   c0-3.8222656-0.9365234-7.5927734-2.7070313-10.9042969l-5.8466797-10.934082   c-0.7900391-1.4799805-0.3330078-3.3701172,1.0205078-4.2133789c0.6064453-0.3779297,1.3125-0.4863281,1.9873047-0.3066406   c0.7294922,0.1948242,1.3417969,0.6962891,1.7246094,1.4121094l1.3134766,2.4570313   c1.8964844,3.546875,5.4433594,5.7509766,9.2578125,5.7509766h12.6230469c3.8144531,0,7.3613281-2.2041016,9.2578125-5.7509766   l1.3134766-2.4570313c0.3828125-0.7158203,0.9951172-1.2172852,1.7246094-1.4121094   c0.6757813-0.1796875,1.3808594-0.0712891,1.9873047,0.3066406C53.9482422,28.2348633,54.4052734,30.125,53.6152344,31.6049805z"/><path d="M32,33c4.9628906,0,9-4.0375977,9-9s-4.0371094-9-9-9s-9,4.0375977-9,9S27.0371094,33,32,33z M32,17   c3.859375,0,7,3.1401367,7,7s-3.140625,7-7,7s-7-3.1401367-7-7S28.140625,17,32,17z"/><path d="M52.6279297,3c-5.1679688,0-9.3720703,3.5888672-9.3720703,8c0,1.0488281,0.2314453,2.0595703,0.6884766,3.012207   l-1.8320313,3.5268555c-0.203125,0.3916016-0.1259766,0.8696289,0.1904297,1.1772461C42.4941406,18.902832,42.7460938,19,43,19   c0.1660156,0,0.3320313-0.0410156,0.484375-0.125l3.1357422-1.7348633C48.3017578,18.34375,50.4082031,19,52.6279297,19   C57.7958984,19,62,15.4111328,62,11S57.7958984,3,52.6279297,3z M52.6279297,17   c-1.9990234,0-3.8710938-0.6450195-5.2714844-1.8168945c-0.1796875-0.1503906-0.4169922-0.2329102-0.6513672-0.2329102   c-0.1689453,0-0.3359375,0.0429688-0.484375,0.125l-0.8066406,0.4462891l0.5458984-1.0507813   c0.1572266-0.3027344,0.1494141-0.6640625-0.0205078-0.9594727C45.4853516,12.7231445,45.2558594,11.878418,45.2558594,11   c0-3.3085938,3.3066406-6,7.3720703-6S60,7.6914063,60,11S56.6933594,17,52.6279297,17z"/><path d="M17.3798828,17.1401367L20.515625,18.875C20.6679688,18.9589844,20.8339844,19,21,19   c0.2539063,0,0.5058594-0.097168,0.6972656-0.2836914c0.3164063-0.3076172,0.3935547-0.7856445,0.1904297-1.1772461   l-1.8320313-3.5268555C20.5126953,13.0595703,20.7441406,12.0488281,20.7441406,11c0-4.4111328-4.2041016-8-9.3720703-8   S2,6.5888672,2,11s4.2041016,8,9.3720703,8C13.5917969,19,15.6982422,18.34375,17.3798828,17.1401367z M4,11   c0-3.3085938,3.3066406-6,7.3720703-6s7.3720703,2.6914063,7.3720703,6c0,0.878418-0.2294922,1.7231445-0.6835938,2.5112305   c-0.1699219,0.2954102-0.1777344,0.6567383-0.0205078,0.9594727l0.5458984,1.0507813l-0.8066406-0.4462891   c-0.3544922-0.1958008-0.8271484-0.1508789-1.1357422,0.1079102C15.2431641,16.3549805,13.3710938,17,11.3720703,17   C7.3066406,17,4,14.3085938,4,11z"/><path d="M53.1757813,7.7993164L52.5,8.4511719l-0.6757813-0.6518555c-1.0966797-1.0595703-2.8818359-1.0610352-3.9804688-0.0043945   C47.3007813,8.3178711,47.0009766,9.015625,47,9.7607422s0.2978516,1.4438477,0.8408203,1.9677734l3.8828125,3.7416992   C51.9394531,15.6772461,52.2216797,15.7714844,52.5,15.746582C52.5273438,15.7490234,52.5546875,15.75,52.5820313,15.75   c0.25,0,0.5-0.0932617,0.6943359-0.2797852l3.8828125-3.7421875C57.7021484,11.2045898,58.0009766,10.5058594,58,9.7607422   s-0.3007813-1.4428711-0.84375-1.9658203C56.0566406,6.7387695,54.2714844,6.7402344,53.1757813,7.7993164z M55.7705078,10.2880859   L52.5,13.4404297l-3.2705078-3.1518555C49.0810547,10.1455078,49,9.9589844,49,9.762207   c0-0.1962891,0.0820313-0.3828125,0.2304688-0.5253906c0.1630859-0.1572266,0.3828125-0.2358398,0.6015625-0.2358398   c0.2197266,0,0.4394531,0.0791016,0.6035156,0.2368164l1.3701172,1.3227539c0.3867188,0.3740234,1.0019531,0.3740234,1.3886719,0   l1.3701172-1.3227539c0.3271484-0.3149414,0.8779297-0.315918,1.2050781-0.0009766c0,0,0,0,0,0.0004883   C55.9179688,9.3793945,56,9.565918,56,9.762207C56,9.9589844,55.9189453,10.1455078,55.7705078,10.2880859z"/><path d="M14,14V8c0-0.5522461-0.4472656-1-1-1H9C8.4472656,7,8,7.4477539,8,8v6c0,0.5522461,0.4472656,1,1,1h4   C13.5527344,15,14,14.5522461,14,14z M12,13h-2V9h2V13z"/></g><text x="0" y="79" fill="#000000" font-size="5px" font-weight="bold" font-family="'Helvetica Neue', Helvetica, Arial-Unicode, Arial, Sans-serif">Created by Asheeqa</text><text x="0" y="84" fill="#000000" font-size="5px" font-weight="bold" font-family="'Helvetica Neue', Helvetica, Arial-Unicode, Arial, Sans-serif">from the Noun Project</text></svg>